<svg width="644" height="261" viewBox="0 0 644 261" fill="none" xmlns="http://www.w3.org/2000/svg">
<rect opacity="0.3" x="145" y="232" width="29" height="29" fill="white"/>
<rect opacity="0.4" x="145" y="203" width="29" height="29" fill="white"/>
<rect opacity="0.5" x="145" y="174" width="29" height="29" fill="white"/>
<rect opacity="0.6" x="145" y="145" width="29" height="29" fill="white"/>
<rect opacity="0.7" x="145" y="116" width="29" height="29" fill="white"/>
<rect opacity="0.8" x="145" y="87" width="29" height="29" fill="white"/>
<rect x="145" y="58" width="29" height="29" fill="white"/>
<rect x="145" y="29" width="29" height="29" fill="white"/>
<rect x="145" width="29" height="29" fill="white"/>
<rect x="116" y="29" width="29" height="29" fill="white"/>
<rect x="87" y="58" width="29" height="29" fill="white"/>
<rect x="58" y="87" width="29" height="29" fill="white"/>
<rect x="29" y="116" width="29" height="29" fill="white"/>
<rect y="145" width="29" height="29" fill="white"/>
<rect opacity="0.9" y="174" width="29" height="29" fill="white"/>
<rect opacity="0.8" x="29" y="174" width="29" height="29" fill="white"/>
<rect opacity="0.7" x="58" y="174" width="29" height="29" fill="white"/>
<rect opacity="0.6" x="87" y="174" width="29" height="29" fill="white"/>
<rect opacity="0.5" x="116" y="174" width="29" height="29" fill="white"/>
<rect opacity="0.3" x="174" y="174" width="29" height="29" fill="white"/>
<rect opacity="0.3" x="586" y="232" width="29" height="29" fill="white"/>
<rect opacity="0.4" x="586" y="203" width="29" height="29" fill="white"/>
<rect opacity="0.5" x="586" y="174" width="29" height="29" fill="white"/>
<rect opacity="0.6" x="586" y="145" width="29" height="29" fill="white"/>
<rect opacity="0.7" x="586" y="116" width="29" height="29" fill="white"/>
<rect opacity="0.8" x="586" y="87" width="29" height="29" fill="white"/>
<rect x="586" y="58" width="29" height="29" fill="white"/>
<rect x="586" y="29" width="29" height="29" fill="white"/>
<rect x="586" width="29" height="29" fill="white"/>
<rect x="557" y="29" width="29" height="29" fill="white"/>
<rect x="528" y="58" width="29" height="29" fill="white"/>
<rect x="499" y="87" width="29" height="29" fill="white"/>
<rect x="470" y="116" width="29" height="29" fill="white"/>
<rect x="441" y="145" width="29" height="29" fill="white"/>
<rect opacity="0.9" x="441" y="174" width="29" height="29" fill="white"/>
<rect opacity="0.8" x="470" y="174" width="29" height="29" fill="white"/>
<rect opacity="0.7" x="499" y="174" width="29" height="29" fill="white"/>
<rect opacity="0.6" x="528" y="174" width="29" height="29" fill="white"/>
<rect opacity="0.5" x="557" y="174" width="29" height="29" fill="white"/>
<rect opacity="0.3" x="615" y="174" width="29" height="29" fill="white"/>
<rect opacity="0.5" x="380" y="145" width="29" height="29" fill="#D9D9D9"/>
<rect opacity="0.5" x="235" y="145" width="29" height="29" fill="#D9D9D9"/>
<rect opacity="0.4" x="380" y="174" width="29" height="29" fill="#D9D9D9"/>
<rect opacity="0.4" x="235" y="174" width="29" height="29" fill="#D9D9D9"/>
<rect opacity="0.3" x="380" y="203" width="29" height="29" fill="#D9D9D9"/>
<rect opacity="0.3" x="235" y="203" width="29" height="29" fill="#D9D9D9"/>
<rect opacity="0.6" x="380" y="116" width="29" height="29" fill="#D9D9D9"/>
<rect opacity="0.6" x="235" y="116" width="29" height="29" fill="#D9D9D9"/>
<rect opacity="0.7" x="380" y="87" width="29" height="29" fill="#D9D9D9"/>
<rect opacity="0.7" x="235" y="87" width="29" height="29" fill="#D9D9D9"/>
<rect opacity="0.8" x="380" y="58" width="29" height="29" fill="#D9D9D9"/>
<rect opacity="0.8" x="235" y="58" width="29" height="29" fill="#D9D9D9"/>
<rect opacity="0.2" x="380" y="232" width="29" height="29" fill="#D9D9D9"/>
<rect opacity="0.2" x="235" y="232" width="29" height="29" fill="#D9D9D9"/>
<rect x="235" y="29" width="29" height="29" fill="#D9D9D9"/>
<rect x="380" y="29" width="29" height="29" fill="#D9D9D9"/>
<rect x="235" width="29" height="29" fill="#D9D9D9"/>
<rect x="380" width="29" height="29" fill="#D9D9D9"/>
<rect x="351" width="29" height="29" fill="#D9D9D9"/>
<rect opacity="0.2" x="351" y="232" width="29" height="29" fill="#D9D9D9"/>
<rect x="322" width="29" height="29" fill="#D9D9D9"/>
<rect opacity="0.2" x="322" y="232" width="29" height="29" fill="#D9D9D9"/>
<rect x="293" width="29" height="29" fill="#D9D9D9"/>
<rect opacity="0.2" x="293" y="232" width="29" height="29" fill="#D9D9D9"/>
<rect x="264" width="29" height="29" fill="#D9D9D9"/>
<rect opacity="0.2" x="264" y="232" width="29" height="29" fill="#D9D9D9"/>
</svg>
